<?xml version="1.0" encoding="UTF-8"?>
<!DOCTYPE svg PUBLIC "-//W3C//DTD SVG 1.1//EN" "http://www.w3.org/Graphics/SVG/1.1/DTD/svg11.dtd">
<svg xmlns="http://www.w3.org/2000/svg" version="1.1" width="329px" height="325px" style="shape-rendering:geometricPrecision; text-rendering:geometricPrecision; image-rendering:optimizeQuality; fill-rule:evenodd; clip-rule:evenodd" xmlns:xlink="http://www.w3.org/1999/xlink">
<g><path style="opacity:0.004" fill="#000000" d="M 40.5,0.5 C 41.8333,1.16667 41.8333,1.16667 40.5,0.5 Z"/></g>
<g><path style="opacity:0.004" fill="#000000" d="M 166.5,3.5 C 167.833,4.16667 167.833,4.16667 166.5,3.5 Z"/></g>
<g><path style="opacity:0.004" fill="#000000" d="M 173.5,7.5 C 174.833,8.16667 174.833,8.16667 173.5,7.5 Z"/></g>
<g><path style="opacity:0.004" fill="#000000" d="M 138.5,8.5 C 139.833,9.16667 139.833,9.16667 138.5,8.5 Z"/></g>
<g><path style="opacity:0.004" fill="#000000" d="M 220.5,8.5 C 221.833,9.16667 221.833,9.16667 220.5,8.5 Z"/></g>
<g><path style="opacity:0.004" fill="#000000" d="M 62.5,11.5 C 63.8333,12.1667 63.8333,12.1667 62.5,11.5 Z"/></g>
<g><path style="opacity:0.004" fill="#000000" d="M 305.5,16.5 C 306.833,17.1667 306.833,17.1667 305.5,16.5 Z"/></g>
<g><path style="opacity:0.004" fill="#000000" d="M 307.5,16.5 C 308.833,17.1667 308.833,17.1667 307.5,16.5 Z"/></g>
<g><path style="opacity:0.004" fill="#000000" d="M 12.5,17.5 C 13.8333,18.1667 13.8333,18.1667 12.5,17.5 Z"/></g>
<g><path style="opacity:0.004" fill="#000000" d="M 112.5,18.5 C 113.833,19.1667 113.833,19.1667 112.5,18.5 Z"/></g>
<g><path style="opacity:0.004" fill="#000000" d="M 165.5,22.5 C 166.833,23.1667 166.833,23.1667 165.5,22.5 Z"/></g>
<g><path style="opacity:0.004" fill="#000000" d="M 45.5,32.5 C 46.8333,33.1667 46.8333,33.1667 45.5,32.5 Z"/></g>
<g><path style="opacity:0.004" fill="#000000" d="M 32.5,33.5 C 33.8333,34.1667 33.8333,34.1667 32.5,33.5 Z"/></g>
<g><path style="opacity:0.004" fill="#000000" d="M 286.5,34.5 C 287.833,35.1667 287.833,35.1667 286.5,34.5 Z"/></g>
<g><path style="opacity:0.993" fill="#e3e3e3" d="M 143.5,95.5 C 142.191,97.5706 141.525,100.071 141.5,103C 141.525,105.929 142.191,108.429 143.5,110.5C 143.049,116.977 144.716,122.81 148.5,128C 161.575,132.083 174.575,136.416 187.5,141C 198.956,148.737 205.122,159.57 206,173.5C 207.088,188.592 206.422,203.592 204,218.5C 198.021,238.48 184.687,247.813 164,246.5C 163.333,237.5 163.333,228.5 164,219.5C 169.069,217.098 171.736,213.098 172,207.5C 172.667,198.5 172.667,189.5 172,180.5C 171.952,174.566 169.452,170.066 164.5,167C 155.87,164.54 147.203,162.207 138.5,160C 119.707,154.041 110.373,141.207 110.5,121.5C 110.54,111.294 110.54,100.961 110.5,90.5C 111.161,63.173 125.161,49.8397 152.5,50.5C 152.832,59.8571 152.498,69.1904 151.5,78.5C 145.02,82.2333 142.354,87.8999 143.5,95.5 Z"/></g>
<g><path style="opacity:0.978" fill="#e3e3e3" d="M 205.5,90.5 C 204.711,90.7828 204.044,91.2828 203.5,92C 204.79,100.56 204.79,109.394 203.5,118.5C 203.64,120.03 204.307,121.03 205.5,121.5C 205.196,122.15 204.863,122.817 204.5,123.5C 193.939,124.819 183.439,124.819 173,123.5C 172.667,111.167 172.333,98.8333 172,86.5C 170.725,82.724 168.225,80.0573 164.5,78.5C 163.502,69.1904 163.168,59.8571 163.5,50.5C 189.945,50.7283 203.945,64.0617 205.5,90.5 Z"/></g>
<g><path style="opacity:0.004" fill="#000000" d="M 245.5,53.5 C 246.833,54.1667 246.833,54.1667 245.5,53.5 Z"/></g>
<g><path style="opacity:0.004" fill="#000000" d="M 102.5,57.5 C 103.833,58.1667 103.833,58.1667 102.5,57.5 Z"/></g>
<g><path style="opacity:0.004" fill="#000000" d="M 64.5,60.5 C 65.8333,61.1667 65.8333,61.1667 64.5,60.5 Z"/></g>
<g><path style="opacity:0.004" fill="#000000" d="M 74.5,63.5 C 75.8333,64.1667 75.8333,64.1667 74.5,63.5 Z"/></g>
<g><path style="opacity:0.004" fill="#000000" d="M 35.5,67.5 C 36.8333,68.1667 36.8333,68.1667 35.5,67.5 Z"/></g>
<g><path style="opacity:0.004" fill="#000000" d="M 32.5,73.5 C 33.8333,74.1667 33.8333,74.1667 32.5,73.5 Z"/></g>
<g><path style="opacity:0.004" fill="#000000" d="M 326.5,79.5 C 327.833,80.1667 327.833,80.1667 326.5,79.5 Z"/></g>
<g><path style="opacity:0.004" fill="#000000" d="M 97.5,83.5 C 98.8333,84.1667 98.8333,84.1667 97.5,83.5 Z"/></g>
<g><path style="opacity:0.351" fill="#ececec" d="M 110.5,90.5 C 110.54,100.961 110.54,111.294 110.5,121.5C 109.167,111.167 109.167,100.833 110.5,90.5 Z"/></g>
<g><path style="opacity:0.596" fill="#d4d4d4" d="M 143.5,95.5 C 142.167,100.5 142.167,105.5 143.5,110.5C 142.191,108.429 141.525,105.929 141.5,103C 141.525,100.071 142.191,97.5706 143.5,95.5 Z"/></g>
<g><path style="opacity:0.004" fill="#000000" d="M 290.5,102.5 C 291.833,103.167 291.833,103.167 290.5,102.5 Z"/></g>
<g><path style="opacity:0.488" fill="#dadada" d="M 205.5,90.5 C 205.5,100.833 205.5,111.167 205.5,121.5C 204.307,121.03 203.64,120.03 203.5,118.5C 204.79,109.394 204.79,100.56 203.5,92C 204.044,91.2828 204.711,90.7828 205.5,90.5 Z"/></g>
<g><path style="opacity:0.004" fill="#000000" d="M 212.5,103.5 C 213.833,104.167 213.833,104.167 212.5,103.5 Z"/></g>
<g><path style="opacity:0.004" fill="#000000" d="M 317.5,106.5 C 318.833,107.167 318.833,107.167 317.5,106.5 Z"/></g>
<g><path style="opacity:0.004" fill="#000000" d="M 20.5,110.5 C 21.8333,111.167 21.8333,111.167 20.5,110.5 Z"/></g>
<g><path style="opacity:0.004" fill="#000000" d="M 29.5,117.5 C 30.8333,118.167 30.8333,118.167 29.5,117.5 Z"/></g>
<g><path style="opacity:0.004" fill="#000000" d="M 276.5,120.5 C 277.833,121.167 277.833,121.167 276.5,120.5 Z"/></g>
<g><path style="opacity:0.004" fill="#000000" d="M 91.5,122.5 C 92.8333,123.167 92.8333,123.167 91.5,122.5 Z"/></g>
<g><path style="opacity:0.004" fill="#000000" d="M 298.5,122.5 C 299.833,123.167 299.833,123.167 298.5,122.5 Z"/></g>
<g><path style="opacity:0.004" fill="#000000" d="M 158.5,126.5 C 159.833,127.167 159.833,127.167 158.5,126.5 Z"/></g>
<g><path style="opacity:0.004" fill="#000000" d="M 100.5,127.5 C 101.833,128.167 101.833,128.167 100.5,127.5 Z"/></g>
<g><path style="opacity:0.004" fill="#000000" d="M 166.5,129.5 C 167.833,130.167 167.833,130.167 166.5,129.5 Z"/></g>
<g><path style="opacity:0.004" fill="#000000" d="M 241.5,129.5 C 242.833,130.167 242.833,130.167 241.5,129.5 Z"/></g>
<g><path style="opacity:0.004" fill="#000000" d="M 189.5,133.5 C 190.833,134.167 190.833,134.167 189.5,133.5 Z"/></g>
<g><path style="opacity:0.004" fill="#000000" d="M 309.5,133.5 C 310.833,134.167 310.833,134.167 309.5,133.5 Z"/></g>
<g><path style="opacity:0.004" fill="#000000" d="M 109.5,143.5 C 110.833,144.167 110.833,144.167 109.5,143.5 Z"/></g>
<g><path style="opacity:0.004" fill="#000000" d="M 40.5,148.5 C 41.8333,149.167 41.8333,149.167 40.5,148.5 Z"/></g>
<g><path style="opacity:0.004" fill="#000000" d="M 75.5,148.5 C 76.8333,149.167 76.8333,149.167 75.5,148.5 Z"/></g>
<g><path style="opacity:0.004" fill="#000000" d="M 107.5,153.5 C 108.833,154.167 108.833,154.167 107.5,153.5 Z"/></g>
<g><path style="opacity:0.004" fill="#000000" d="M 255.5,153.5 C 256.833,154.167 256.833,154.167 255.5,153.5 Z"/></g>
<g><path style="opacity:0.004" fill="#000000" d="M 45.5,155.5 C 46.8333,156.167 46.8333,156.167 45.5,155.5 Z"/></g>
<g><path style="opacity:0.004" fill="#000000" d="M 55.5,155.5 C 56.8333,156.167 56.8333,156.167 55.5,155.5 Z"/></g>
<g><path style="opacity:0.004" fill="#000000" d="M 239.5,159.5 C 240.833,160.167 240.833,160.167 239.5,159.5 Z"/></g>
<g><path style="opacity:0.004" fill="#000000" d="M 323.5,160.5 C 324.833,161.167 324.833,161.167 323.5,160.5 Z"/></g>
<g><path style="opacity:0.004" fill="#000000" d="M 304.5,163.5 C 305.833,164.167 305.833,164.167 304.5,163.5 Z"/></g>
<g><path style="opacity:0.983" fill="#e3e3e3" d="M 142.5,173.5 C 142.131,175.441 141.464,177.275 140.5,179C 141.319,187.755 141.819,196.589 142,205.5C 142.383,206.056 142.883,206.389 143.5,206.5C 143.46,209.425 144.293,212.091 146,214.5C 148.869,216.504 151.369,218.837 153.5,221.5C 153,230.282 152.166,238.948 151,247.5C 127.15,246.654 113.817,234.32 111,210.5C 110.187,198.121 110.354,185.787 111.5,173.5C 121.993,172.177 132.326,172.177 142.5,173.5 Z"/></g>
<g><path style="opacity:0.004" fill="#000000" d="M 22.5,176.5 C 23.8333,177.167 23.8333,177.167 22.5,176.5 Z"/></g>
<g><path style="opacity:0.765" fill="#d5d5d5" d="M 142.5,173.5 C 142.245,184.336 142.578,195.336 143.5,206.5C 142.883,206.389 142.383,206.056 142,205.5C 141.819,196.589 141.319,187.755 140.5,179C 141.464,177.275 142.131,175.441 142.5,173.5 Z"/></g>
<g><path style="opacity:0.004" fill="#000000" d="M -0.5,183.5 C 0.833333,184.167 0.833333,184.167 -0.5,183.5 Z"/></g>
<g><path style="opacity:0.004" fill="#000000" d="M 162.5,186.5 C 163.833,187.167 163.833,187.167 162.5,186.5 Z"/></g>
<g><path style="opacity:0.004" fill="#000000" d="M 315.5,191.5 C 316.833,192.167 316.833,192.167 315.5,191.5 Z"/></g>
<g><path style="opacity:0.004" fill="#000000" d="M 287.5,198.5 C 288.833,199.167 288.833,199.167 287.5,198.5 Z"/></g>
<g><path style="opacity:0.004" fill="#000000" d="M 97.5,203.5 C 98.8333,204.167 98.8333,204.167 97.5,203.5 Z"/></g>
<g><path style="opacity:0.004" fill="#000000" d="M 245.5,203.5 C 246.833,204.167 246.833,204.167 245.5,203.5 Z"/></g>
<g><path style="opacity:0.004" fill="#000000" d="M 103.5,210.5 C 104.833,211.167 104.833,211.167 103.5,210.5 Z"/></g>
<g><path style="opacity:0.004" fill="#000000" d="M 100.5,211.5 C 101.833,212.167 101.833,212.167 100.5,211.5 Z"/></g>
<g><path style="opacity:0.004" fill="#000000" d="M 66.5,212.5 C 67.8333,213.167 67.8333,213.167 66.5,212.5 Z"/></g>
<g><path style="opacity:0.004" fill="#000000" d="M 214.5,225.5 C 215.833,226.167 215.833,226.167 214.5,225.5 Z"/></g>
<g><path style="opacity:0.004" fill="#000000" d="M 247.5,225.5 C 248.833,226.167 248.833,226.167 247.5,225.5 Z"/></g>
<g><path style="opacity:0.004" fill="#000000" d="M 261.5,225.5 C 262.833,226.167 262.833,226.167 261.5,225.5 Z"/></g>
<g><path style="opacity:0.004" fill="#000000" d="M 235.5,228.5 C 236.833,229.167 236.833,229.167 235.5,228.5 Z"/></g>
<g><path style="opacity:0.004" fill="#000000" d="M 57.5,233.5 C 58.8333,234.167 58.8333,234.167 57.5,233.5 Z"/></g>
<g><path style="opacity:0.004" fill="#000000" d="M 111.5,240.5 C 112.833,241.167 112.833,241.167 111.5,240.5 Z"/></g>
<g><path style="opacity:0.004" fill="#000000" d="M 214.5,250.5 C 215.833,251.167 215.833,251.167 214.5,250.5 Z"/></g>
<g><path style="opacity:0.004" fill="#000000" d="M 154.5,260.5 C 155.833,261.167 155.833,261.167 154.5,260.5 Z"/></g>
<g><path style="opacity:0.004" fill="#000000" d="M 197.5,260.5 C 198.833,261.167 198.833,261.167 197.5,260.5 Z"/></g>
<g><path style="opacity:0.004" fill="#000000" d="M 125.5,266.5 C 126.833,267.167 126.833,267.167 125.5,266.5 Z"/></g>
<g><path style="opacity:0.004" fill="#000000" d="M 169.5,283.5 C 170.833,284.167 170.833,284.167 169.5,283.5 Z"/></g>
<g><path style="opacity:0.004" fill="#000000" d="M 298.5,285.5 C 299.833,286.167 299.833,286.167 298.5,285.5 Z"/></g>
<g><path style="opacity:0.004" fill="#000000" d="M 62.5,295.5 C 63.8333,296.167 63.8333,296.167 62.5,295.5 Z"/></g>
<g><path style="opacity:0.004" fill="#000000" d="M 176.5,297.5 C 177.833,298.167 177.833,298.167 176.5,297.5 Z"/></g>
<g><path style="opacity:0.004" fill="#000000" d="M 263.5,305.5 C 264.833,306.167 264.833,306.167 263.5,305.5 Z"/></g>
<g><path style="opacity:0.004" fill="#000000" d="M 2.5,308.5 C 3.83333,309.167 3.83333,309.167 2.5,308.5 Z"/></g>
<g><path style="opacity:0.004" fill="#000000" d="M 195.5,309.5 C 196.833,310.167 196.833,310.167 195.5,309.5 Z"/></g>
<g><path style="opacity:0.004" fill="#000000" d="M 256.5,312.5 C 257.833,313.167 257.833,313.167 256.5,312.5 Z"/></g>
<g><path style="opacity:0.004" fill="#000000" d="M 80.5,314.5 C 81.8333,315.167 81.8333,315.167 80.5,314.5 Z"/></g>
<g><path style="opacity:0.004" fill="#000000" d="M 155.5,317.5 C 156.833,318.167 156.833,318.167 155.5,317.5 Z"/></g>
<g><path style="opacity:0.004" fill="#000000" d="M 144.5,321.5 C 145.833,322.167 145.833,322.167 144.5,321.5 Z"/></g>
</svg>
